<mxfile host="app.diagrams.net" modified="2023-06-29T10:06:12.688Z" agent="Mozilla/5.0 (Macintosh; Intel Mac OS X 10_15_7) AppleWebKit/537.36 (KHTML, like Gecko) Chrome/114.0.0.0 Safari/537.36" etag="vFVPowm882Hgbz4_YrZO" version="21.5.2" type="github">
  <diagram name="Page-1" id="DNtioiEFosfLJ344zS8q">
    <mxGraphModel dx="954" dy="5297" grid="1" gridSize="10" guides="1" tooltips="1" connect="1" arrows="1" fold="1" page="1" pageScale="1" pageWidth="3300" pageHeight="4681" math="0" shadow="0">
      <root>
        <mxCell id="0" />
        <mxCell id="1" parent="0" />
        <mxCell id="HN-MVnUZaFEQDO-q7xse-2" value="" style="shape=image;imageAspect=0;aspect=fixed;verticalLabelPosition=bottom;verticalAlign=top;image=data:image/png,iVBORw0KGgoAAAANSUhEUgAAAOEAAADhCAMAAAAJbSJIAAAAhFBMVEX///8AAAD29vb8/Pzw8PBzc3PY2Nifn5/e3t7z8/O5ubnJycnn5+dwcHDU1NTb29vAwMA6OjoxMTGxsbFaWlpkZGRJSUnPz8+MjIyoqKh8fHwkJCRUVFQODg6VlZUrKyuBgYEZGRlNTU2jo6M/Pz+ZmZk2NjYXFxcNDQ1oaGhfX18uLi5QXcejAAALiklEQVR4nO1d2XaqShCNiIqC84BxiKDGRPP//3fVnEQaetg9QJF13W9nrYPpDd01V/XLyxNPPPHEE0+Qo9mNgmH7irh36NxxeO2F7WEQRJHf9aiXZ4nBtLNczY8fDR7W48Xm0l92pmFEvU4TXL9c73xMudTy2K5P+/4h9v/S94ynqwlEjsHsEPrUK4cwXG7W+vTu+Fi0ek3q9cvhx8utIbtf7KcBNQ0hhsuZLb07JvX8ktF07ITeP6yCmpGMk51Lfje0RvXh2Iw3fJVnh+1xWg+OXm9TAr1vTF5roD+mbqSLCIs3Wnr+1PnxK4LyO5a4P7OYjYj4BftK+N2woTACoqQyfld8LrtVE+w51e8AFtVu1eBcMb8b+hVu1c4XAcGrduxVxC8oVwPKsKpEcfQqUIFCLOLS+fmVitAitoeSbdX2kZZgo+yd2jONT7jEvjyZ6i2pyf1DaapxTs3sB5+dUvhFC2piGbRKCK4GdSLYaMydy5s2pRbkYeyY4qgOQpTF0alIDa3jvCVg4vArvlKT4eNr6IrglJqKCGNHebkeNRExJk7OYphS85Bg4eArDlNqFlKcrOM3wYmagwILW4lK7y2pMLPi51UT8rXDyoYhsUMP4tWcYE01fQGhKcEB9cpRpIY6I6q/lPnB2Uxn0IVF9ZGYEFQewtNskVaw+Kv5eV6+rRT+qUHoJpSn5n9CJVGntSjRtTq1Dj8bsCP9j7u2NkNF0CJ5/E8/7JTkH1+yxUOevJBsrktQEThcs0a9N3IvlSZvERveXsn/v6ZWjBU7r/jGRn135K7YFMui2vIn1lr+sKeSo5w8lzdwl1Q8jjji31OchbNORkN+qq/ghysDxUYCMefnCZstxXMa+zRSlTilIg3r4Dyue6Jor0p/rWFHSvmyGhtxyLlQwLddT8aLzeyKy7n1i/78Mtsvxl/5nZcuxXttpFpWgjJU/lJjJdny0WOLj1vL1+koHkY+9/97ftSOe9PO8vK7Z84DybpilVL6RPOnqZLhu/T54CpW18dWGHXBs+/5w+RmH+3kpXpqQ/mI/b03JcHGVPET4VTf2o+m74pzBPjjqoXdgURmqiqKyOGiXNgeETZIGpSIIaBwgcyiDxAsLwkrB2A2CfXYA0pNQcgQWVui+pF2CvzKJxFDxGRaKwL9TSi6RsUQWpziJA6R3yDbpZDZu5MrKjBAWmeGcgPcwwjWWJZesZX9BBoCrq8+vEFi2HTRACINQzSLInGFQ5AgZv45R4BWXosdFDjUIvctygKcjV6KfgEy2O64kDQk4RUTouUpozMPkPTs4rk+kZzQSFRQiBoPr6wT5IWVQYIMDtWSu0ODoSDGr5MPJWnVBYIPP+AKe0+jjalPImmGeH3knLfACCe4c1ZQpgcNUchzhDWKuKm65TRkIc/8xs+xVXmHFfA6Xo40DWBJOiPs6YSV/q64SNxg0M+2OgS60zhhCFgUC42+SgBXwBRMZx+t71pU3szJAAskNTgFKMEn+KRFiZUTDFJsnet8uEadb/qGXSWgC6CZ5nwpGOoakqnCX6AnMT+qANQVO/pJFU1QnO5zz4EvppyWKj2gHgL7lKKS4xfGdY4OEafYWlmdD74XF6Xx1miCXYKslw6a3X0iUizAxbKiBhSlNDG2PEBpyjgIaPckva64A1ssExgegMqiBhN/bsAiw4zQQIPdZJxYYLbpOusE/TGGYK9ZqP/IhIwTC1B7Z6XGO/ZI3hCiAhiPyLpBUAHGVTqRcWIB9klkfXXQ/aULQbHwsZhbK/MIGMKiDWA84GEGSsaXbWIECy4XGTC7bfx4AGVYD6PtBWWYPh74c98QDAw+zDaUYV3OYXkMEzJKOYD6W59hXbSFPkO0FKoeDvCLwS5FizDqYtOgDB/1FF2Q4YWQFAMwjvFgiJ7DDSGpLJpg95G+pBlL/mqV6ILRNn2GqeSvVgk0rKTPsC4+Ppqv/rsM0Qh9hiHaq0zIKgswrLTNhBPREgeiOpo8QHWYDSuh+X+aytkCwOVmlZu6ZeobNXGfwNVmjUy0f7cl/KNVAq1Pyzp7B/CZWS1uu0FTpNloIlqnMCGtFvoBuuOyEWG4SL8OyScfLRPNRvVj9AaOOuTxQ7D0Z51tSoA7GU70tRiog89m1+BmmQZ9Ir+JXpY1Z8QiPO6BXiPCtXtsVAmuTDySb1O4sYeNfeLVpURta7+I4DGH7ErxMvY+sdJHjZNCMTv8HG2J8EsXn3OYexJvtqANR8G2SaFOVKMfhbS2De8oyBsnGhMEz4QnETWgG8U2yyDFn6Vo6/qGj3/CSd426aJO8A1kxewaZ6ko8zV6ivh9UxUg1lhjcaNpzbSm2aeRxh1T26I89LWuBqBQimjl7B0TzjbTGhl8IqhSRL2mO3hjFHFz6AbDmagW0Jt9zzOf8V71OyQj20qBjiRs8MW9clZiDmVchCKG5tBmfhuv7hUI1tPQcTR1byni+3hoKfQvjlVJVO1rmEQ3X2jfdpRWE1zUvyxTNJDW4KaOpPzIlKcn5O8QvXk4UZrBuGxfCm79zEL4a0Zj9GftEq3USMPWfkAct8Yd6Cw+V7KRnDbovhvddvohloAeX9Z87M/zzTiV/OZlUIKJE70Z3vYtywFyZU0/vG1DP3yVnYjZq2OZE7+jnckFSCU85611fo+ZF8o05unce3F0IpvR28Z8CLq8K4Rj/WWFZbMjr9qY9WJrQycK3+zutpHHrKO08MCOGc4bK9zIj/2qY75fm+FhZXtH31HxjnkmPLOvfSRvsF+Gw0jLMveDQUcnVCSGql4k4u1/5rujPsjkjBs84WqfOqF3NUmVx4Rr5DIqNEKtjDH8Fc0UMRfqEBLfEWZu4Y2wIrFUwxBwM66+wY/P5MG3k5hmEuyV6/QuaAYYxECqtgSNYczXR0KPOw2CmmEmMbCCH0HAgHk7gEGs5zs6upgI/KOCUgCGotIN0c3fOLllEZ28IkrwZK0bZfWGdjbcwW28H6hsE5XCj7OT9rpyw1G/ZdjBDWG4bBPd4MFsAnmVkUFmw/oau53GwRCFX5mjGMj+moFtan2pss7BEFlm7DhByZIuJuFiy2vQ9IY5im5DSpj/JZ5KZVThZ8dQNW4+D5EGZkOtokDYl9H0TzuG2sJbsPacxvH4b8KsYdiKoX6BtijGnzf8BrNCPCWVXbRTEkOT6UcCI6PoQg/eZg+RM5kvp6ZJKRsPGL0liIHAmecM3fODdtw7vL+/xu3AIqxowdCsKFRkmJWWVDNnmBgG+QSzFBOXrLLQzn39YGL80gUmeFklpqYMU4vJ1Hxd8FFSftvwdkG7O2H40iZxwygPQ4aWHRJ8xV9OD5vZLZi2YxD4PpKuDYjBiKF9K1bEjWnoXfoJApzlxMBF78CA+xVPJQhUA4ZjJ296yE8FuS9S0A8LuyF49XT5FLcdx9ltbYYTZ2dFQLGxvlhk0orQZfhlZG7z4UvitftkGl4t7juGgzgOw+m72bvVDEXtnAp01ZyG9emOr/T7n2ZiSI/h2PEZQW+TsmGoVb22d1790dWR5eUzLKWCV6OG1YyhRv2TYZxEhRFcAWLGEM6wbUtrR5ZGue0ZwpvEoZbIwwNVlhlDsMxyU2rFZxN7z2UybJVdfB0i5YJmDJFq9fRQfkdSBITEzBgCNcqLEo/gA031uzZjqE50r6pqDwhUn7EchvsKp3J4CoFjxlDRILqsttcqkAZVzF62lGGr+nkVU8l8CjOGklKrBcmgg2aSihZk1qIgbBH9qkBF8NEWmThmMl1Qb/L5RjhQpRnzG3bMGqL4o/QSkvsyM+jxNIfZS+cY9mtyfld0R8UgjtmxKTJMajF564r2mfUcP8wY5gasHJNazE77hwHTv5OY/QhTRjs50A9sYuEN+j8K8mxqfMQ/4a7dPKzT9/uFN11ej+TaZnL7bStMktea3NjDQxS07YRf1G7XbXc+8cQTTzzxP8B/NIS1ZFNRUQoAAAAASUVORK5CYII=;" vertex="1" parent="1">
          <mxGeometry x="2330" y="-950" width="95" height="95" as="geometry" />
        </mxCell>
        <mxCell id="HN-MVnUZaFEQDO-q7xse-3" value="GITHUB" style="text;html=1;strokeColor=none;fillColor=none;align=center;verticalAlign=middle;whiteSpace=wrap;rounded=0;" vertex="1" parent="1">
          <mxGeometry x="2347.5" y="-830" width="60" height="30" as="geometry" />
        </mxCell>
        <mxCell id="HN-MVnUZaFEQDO-q7xse-4" value="Web Master Production" style="rounded=0;whiteSpace=wrap;html=1;" vertex="1" parent="1">
          <mxGeometry x="2320" y="-380" width="120" height="60" as="geometry" />
        </mxCell>
        <mxCell id="HN-MVnUZaFEQDO-q7xse-58" style="edgeStyle=orthogonalEdgeStyle;rounded=0;orthogonalLoop=1;jettySize=auto;html=1;entryX=0;entryY=0.25;entryDx=0;entryDy=0;" edge="1" parent="1" source="HN-MVnUZaFEQDO-q7xse-6" target="HN-MVnUZaFEQDO-q7xse-55">
          <mxGeometry relative="1" as="geometry" />
        </mxCell>
        <mxCell id="HN-MVnUZaFEQDO-q7xse-6" value="Login / Logout" style="rounded=1;whiteSpace=wrap;html=1;" vertex="1" parent="1">
          <mxGeometry x="140" y="760" width="120" height="60" as="geometry" />
        </mxCell>
        <mxCell id="HN-MVnUZaFEQDO-q7xse-56" style="edgeStyle=orthogonalEdgeStyle;rounded=0;orthogonalLoop=1;jettySize=auto;html=1;entryX=0.25;entryY=1;entryDx=0;entryDy=0;" edge="1" parent="1" source="HN-MVnUZaFEQDO-q7xse-7" target="HN-MVnUZaFEQDO-q7xse-6">
          <mxGeometry relative="1" as="geometry" />
        </mxCell>
        <mxCell id="HN-MVnUZaFEQDO-q7xse-7" value="Front End" style="rounded=1;whiteSpace=wrap;html=1;" vertex="1" parent="1">
          <mxGeometry x="60" y="920" width="120" height="60" as="geometry" />
        </mxCell>
        <mxCell id="HN-MVnUZaFEQDO-q7xse-57" style="edgeStyle=orthogonalEdgeStyle;rounded=0;orthogonalLoop=1;jettySize=auto;html=1;entryX=0.75;entryY=1;entryDx=0;entryDy=0;" edge="1" parent="1" source="HN-MVnUZaFEQDO-q7xse-8" target="HN-MVnUZaFEQDO-q7xse-6">
          <mxGeometry relative="1" as="geometry" />
        </mxCell>
        <mxCell id="HN-MVnUZaFEQDO-q7xse-8" value="Back End" style="rounded=1;whiteSpace=wrap;html=1;" vertex="1" parent="1">
          <mxGeometry x="230" y="920" width="120" height="60" as="geometry" />
        </mxCell>
        <mxCell id="HN-MVnUZaFEQDO-q7xse-9" value="Dashboard" style="rounded=1;whiteSpace=wrap;html=1;" vertex="1" parent="1">
          <mxGeometry x="470" y="760" width="120" height="60" as="geometry" />
        </mxCell>
        <mxCell id="HN-MVnUZaFEQDO-q7xse-117" style="edgeStyle=orthogonalEdgeStyle;rounded=0;orthogonalLoop=1;jettySize=auto;html=1;entryX=0.25;entryY=1;entryDx=0;entryDy=0;" edge="1" parent="1" source="HN-MVnUZaFEQDO-q7xse-10" target="HN-MVnUZaFEQDO-q7xse-9">
          <mxGeometry relative="1" as="geometry" />
        </mxCell>
        <mxCell id="HN-MVnUZaFEQDO-q7xse-10" value="Front End" style="rounded=1;whiteSpace=wrap;html=1;" vertex="1" parent="1">
          <mxGeometry x="385" y="920" width="120" height="60" as="geometry" />
        </mxCell>
        <mxCell id="HN-MVnUZaFEQDO-q7xse-118" style="edgeStyle=orthogonalEdgeStyle;rounded=0;orthogonalLoop=1;jettySize=auto;html=1;entryX=0.75;entryY=1;entryDx=0;entryDy=0;" edge="1" parent="1" source="HN-MVnUZaFEQDO-q7xse-11" target="HN-MVnUZaFEQDO-q7xse-9">
          <mxGeometry relative="1" as="geometry" />
        </mxCell>
        <mxCell id="HN-MVnUZaFEQDO-q7xse-11" value="Back End" style="rounded=1;whiteSpace=wrap;html=1;" vertex="1" parent="1">
          <mxGeometry x="555" y="920" width="120" height="60" as="geometry" />
        </mxCell>
        <mxCell id="HN-MVnUZaFEQDO-q7xse-12" value="On Boarding" style="rounded=1;whiteSpace=wrap;html=1;" vertex="1" parent="1">
          <mxGeometry x="790" y="760" width="120" height="60" as="geometry" />
        </mxCell>
        <mxCell id="HN-MVnUZaFEQDO-q7xse-119" style="edgeStyle=orthogonalEdgeStyle;rounded=0;orthogonalLoop=1;jettySize=auto;html=1;entryX=0.25;entryY=1;entryDx=0;entryDy=0;" edge="1" parent="1" source="HN-MVnUZaFEQDO-q7xse-13" target="HN-MVnUZaFEQDO-q7xse-12">
          <mxGeometry relative="1" as="geometry" />
        </mxCell>
        <mxCell id="HN-MVnUZaFEQDO-q7xse-13" value="Front End" style="rounded=1;whiteSpace=wrap;html=1;" vertex="1" parent="1">
          <mxGeometry x="720" y="920" width="120" height="60" as="geometry" />
        </mxCell>
        <mxCell id="HN-MVnUZaFEQDO-q7xse-120" style="edgeStyle=orthogonalEdgeStyle;rounded=0;orthogonalLoop=1;jettySize=auto;html=1;entryX=0.75;entryY=1;entryDx=0;entryDy=0;" edge="1" parent="1" source="HN-MVnUZaFEQDO-q7xse-14" target="HN-MVnUZaFEQDO-q7xse-12">
          <mxGeometry relative="1" as="geometry" />
        </mxCell>
        <mxCell id="HN-MVnUZaFEQDO-q7xse-14" value="Back End" style="rounded=1;whiteSpace=wrap;html=1;" vertex="1" parent="1">
          <mxGeometry x="890" y="920" width="120" height="60" as="geometry" />
        </mxCell>
        <mxCell id="HN-MVnUZaFEQDO-q7xse-15" value="HR" style="rounded=1;whiteSpace=wrap;html=1;" vertex="1" parent="1">
          <mxGeometry x="1070" y="760" width="120" height="60" as="geometry" />
        </mxCell>
        <mxCell id="HN-MVnUZaFEQDO-q7xse-121" style="edgeStyle=orthogonalEdgeStyle;rounded=0;orthogonalLoop=1;jettySize=auto;html=1;" edge="1" parent="1" source="HN-MVnUZaFEQDO-q7xse-17" target="HN-MVnUZaFEQDO-q7xse-15">
          <mxGeometry relative="1" as="geometry" />
        </mxCell>
        <mxCell id="HN-MVnUZaFEQDO-q7xse-17" value="Back End" style="rounded=1;whiteSpace=wrap;html=1;" vertex="1" parent="1">
          <mxGeometry x="1070" y="920" width="120" height="60" as="geometry" />
        </mxCell>
        <mxCell id="HN-MVnUZaFEQDO-q7xse-61" style="edgeStyle=orthogonalEdgeStyle;rounded=0;orthogonalLoop=1;jettySize=auto;html=1;entryX=0;entryY=0.5;entryDx=0;entryDy=0;" edge="1" parent="1" source="HN-MVnUZaFEQDO-q7xse-18" target="HN-MVnUZaFEQDO-q7xse-55">
          <mxGeometry relative="1" as="geometry">
            <Array as="points">
              <mxPoint x="1410" y="480" />
              <mxPoint x="1900" y="480" />
              <mxPoint x="1900" y="330" />
            </Array>
          </mxGeometry>
        </mxCell>
        <mxCell id="HN-MVnUZaFEQDO-q7xse-18" value="Travel Requests" style="rounded=1;whiteSpace=wrap;html=1;" vertex="1" parent="1">
          <mxGeometry x="1350" y="760" width="120" height="60" as="geometry" />
        </mxCell>
        <mxCell id="HN-MVnUZaFEQDO-q7xse-59" style="edgeStyle=orthogonalEdgeStyle;rounded=0;orthogonalLoop=1;jettySize=auto;html=1;entryX=0.25;entryY=1;entryDx=0;entryDy=0;" edge="1" parent="1" source="HN-MVnUZaFEQDO-q7xse-19" target="HN-MVnUZaFEQDO-q7xse-18">
          <mxGeometry relative="1" as="geometry" />
        </mxCell>
        <mxCell id="HN-MVnUZaFEQDO-q7xse-19" value="Front End" style="rounded=1;whiteSpace=wrap;html=1;" vertex="1" parent="1">
          <mxGeometry x="1270" y="921" width="120" height="60" as="geometry" />
        </mxCell>
        <mxCell id="HN-MVnUZaFEQDO-q7xse-60" style="edgeStyle=orthogonalEdgeStyle;rounded=0;orthogonalLoop=1;jettySize=auto;html=1;entryX=0.75;entryY=1;entryDx=0;entryDy=0;" edge="1" parent="1" source="HN-MVnUZaFEQDO-q7xse-20" target="HN-MVnUZaFEQDO-q7xse-18">
          <mxGeometry relative="1" as="geometry" />
        </mxCell>
        <mxCell id="HN-MVnUZaFEQDO-q7xse-20" value="Back End" style="rounded=1;whiteSpace=wrap;html=1;" vertex="1" parent="1">
          <mxGeometry x="1440" y="921" width="120" height="60" as="geometry" />
        </mxCell>
        <mxCell id="HN-MVnUZaFEQDO-q7xse-64" style="edgeStyle=orthogonalEdgeStyle;rounded=0;orthogonalLoop=1;jettySize=auto;html=1;entryX=0;entryY=0.75;entryDx=0;entryDy=0;" edge="1" parent="1" source="HN-MVnUZaFEQDO-q7xse-21" target="HN-MVnUZaFEQDO-q7xse-55">
          <mxGeometry relative="1" as="geometry">
            <Array as="points">
              <mxPoint x="1770" y="520" />
              <mxPoint x="2080" y="520" />
              <mxPoint x="2080" y="345" />
            </Array>
          </mxGeometry>
        </mxCell>
        <mxCell id="HN-MVnUZaFEQDO-q7xse-21" value="Cash Advance" style="rounded=1;whiteSpace=wrap;html=1;" vertex="1" parent="1">
          <mxGeometry x="1710" y="760" width="120" height="60" as="geometry" />
        </mxCell>
        <mxCell id="HN-MVnUZaFEQDO-q7xse-62" style="edgeStyle=orthogonalEdgeStyle;rounded=0;orthogonalLoop=1;jettySize=auto;html=1;entryX=0.25;entryY=1;entryDx=0;entryDy=0;" edge="1" parent="1" source="HN-MVnUZaFEQDO-q7xse-22" target="HN-MVnUZaFEQDO-q7xse-21">
          <mxGeometry relative="1" as="geometry" />
        </mxCell>
        <mxCell id="HN-MVnUZaFEQDO-q7xse-22" value="Front End" style="rounded=1;whiteSpace=wrap;html=1;" vertex="1" parent="1">
          <mxGeometry x="1630" y="922" width="120" height="60" as="geometry" />
        </mxCell>
        <mxCell id="HN-MVnUZaFEQDO-q7xse-63" style="edgeStyle=orthogonalEdgeStyle;rounded=0;orthogonalLoop=1;jettySize=auto;html=1;entryX=0.75;entryY=1;entryDx=0;entryDy=0;" edge="1" parent="1" source="HN-MVnUZaFEQDO-q7xse-23" target="HN-MVnUZaFEQDO-q7xse-21">
          <mxGeometry relative="1" as="geometry" />
        </mxCell>
        <mxCell id="HN-MVnUZaFEQDO-q7xse-23" value="Back End" style="rounded=1;whiteSpace=wrap;html=1;" vertex="1" parent="1">
          <mxGeometry x="1800" y="922" width="120" height="60" as="geometry" />
        </mxCell>
        <mxCell id="HN-MVnUZaFEQDO-q7xse-67" style="edgeStyle=orthogonalEdgeStyle;rounded=0;orthogonalLoop=1;jettySize=auto;html=1;entryX=0;entryY=1;entryDx=0;entryDy=0;" edge="1" parent="1" source="HN-MVnUZaFEQDO-q7xse-24" target="HN-MVnUZaFEQDO-q7xse-55">
          <mxGeometry relative="1" as="geometry" />
        </mxCell>
        <mxCell id="HN-MVnUZaFEQDO-q7xse-24" value="Trip" style="rounded=1;whiteSpace=wrap;html=1;" vertex="1" parent="1">
          <mxGeometry x="2070" y="760" width="120" height="60" as="geometry" />
        </mxCell>
        <mxCell id="HN-MVnUZaFEQDO-q7xse-65" style="edgeStyle=orthogonalEdgeStyle;rounded=0;orthogonalLoop=1;jettySize=auto;html=1;entryX=0.25;entryY=1;entryDx=0;entryDy=0;" edge="1" parent="1" source="HN-MVnUZaFEQDO-q7xse-25" target="HN-MVnUZaFEQDO-q7xse-24">
          <mxGeometry relative="1" as="geometry" />
        </mxCell>
        <mxCell id="HN-MVnUZaFEQDO-q7xse-25" value="Front End" style="rounded=1;whiteSpace=wrap;html=1;" vertex="1" parent="1">
          <mxGeometry x="1990" y="923" width="120" height="60" as="geometry" />
        </mxCell>
        <mxCell id="HN-MVnUZaFEQDO-q7xse-66" style="edgeStyle=orthogonalEdgeStyle;rounded=0;orthogonalLoop=1;jettySize=auto;html=1;entryX=0.7;entryY=1.05;entryDx=0;entryDy=0;entryPerimeter=0;" edge="1" parent="1" source="HN-MVnUZaFEQDO-q7xse-26" target="HN-MVnUZaFEQDO-q7xse-24">
          <mxGeometry relative="1" as="geometry" />
        </mxCell>
        <mxCell id="HN-MVnUZaFEQDO-q7xse-26" value="Back End" style="rounded=1;whiteSpace=wrap;html=1;" vertex="1" parent="1">
          <mxGeometry x="2160" y="923" width="120" height="60" as="geometry" />
        </mxCell>
        <mxCell id="HN-MVnUZaFEQDO-q7xse-69" style="edgeStyle=orthogonalEdgeStyle;rounded=0;orthogonalLoop=1;jettySize=auto;html=1;entryX=0.5;entryY=1;entryDx=0;entryDy=0;" edge="1" parent="1" source="HN-MVnUZaFEQDO-q7xse-27" target="HN-MVnUZaFEQDO-q7xse-55">
          <mxGeometry relative="1" as="geometry" />
        </mxCell>
        <mxCell id="HN-MVnUZaFEQDO-q7xse-27" value="Policy Validation" style="rounded=1;whiteSpace=wrap;html=1;" vertex="1" parent="1">
          <mxGeometry x="2350" y="760" width="120" height="60" as="geometry" />
        </mxCell>
        <mxCell id="HN-MVnUZaFEQDO-q7xse-68" style="edgeStyle=orthogonalEdgeStyle;rounded=0;orthogonalLoop=1;jettySize=auto;html=1;" edge="1" parent="1" source="HN-MVnUZaFEQDO-q7xse-29" target="HN-MVnUZaFEQDO-q7xse-27">
          <mxGeometry relative="1" as="geometry" />
        </mxCell>
        <mxCell id="HN-MVnUZaFEQDO-q7xse-29" value="Back End" style="rounded=1;whiteSpace=wrap;html=1;" vertex="1" parent="1">
          <mxGeometry x="2350" y="924" width="120" height="60" as="geometry" />
        </mxCell>
        <mxCell id="HN-MVnUZaFEQDO-q7xse-72" style="edgeStyle=orthogonalEdgeStyle;rounded=0;orthogonalLoop=1;jettySize=auto;html=1;entryX=0.75;entryY=1;entryDx=0;entryDy=0;" edge="1" parent="1" source="HN-MVnUZaFEQDO-q7xse-30" target="HN-MVnUZaFEQDO-q7xse-55">
          <mxGeometry relative="1" as="geometry">
            <Array as="points">
              <mxPoint x="2690" y="680" />
              <mxPoint x="2420" y="680" />
            </Array>
          </mxGeometry>
        </mxCell>
        <mxCell id="HN-MVnUZaFEQDO-q7xse-30" value="Expense Booking" style="rounded=1;whiteSpace=wrap;html=1;" vertex="1" parent="1">
          <mxGeometry x="2630" y="760" width="120" height="60" as="geometry" />
        </mxCell>
        <mxCell id="HN-MVnUZaFEQDO-q7xse-70" style="edgeStyle=orthogonalEdgeStyle;rounded=0;orthogonalLoop=1;jettySize=auto;html=1;entryX=0.25;entryY=1;entryDx=0;entryDy=0;" edge="1" parent="1" source="HN-MVnUZaFEQDO-q7xse-31" target="HN-MVnUZaFEQDO-q7xse-30">
          <mxGeometry relative="1" as="geometry" />
        </mxCell>
        <mxCell id="HN-MVnUZaFEQDO-q7xse-31" value="Front End" style="rounded=1;whiteSpace=wrap;html=1;" vertex="1" parent="1">
          <mxGeometry x="2550" y="922" width="120" height="60" as="geometry" />
        </mxCell>
        <mxCell id="HN-MVnUZaFEQDO-q7xse-71" style="edgeStyle=orthogonalEdgeStyle;rounded=0;orthogonalLoop=1;jettySize=auto;html=1;entryX=0.75;entryY=1;entryDx=0;entryDy=0;" edge="1" parent="1" source="HN-MVnUZaFEQDO-q7xse-32" target="HN-MVnUZaFEQDO-q7xse-30">
          <mxGeometry relative="1" as="geometry" />
        </mxCell>
        <mxCell id="HN-MVnUZaFEQDO-q7xse-32" value="Back End" style="rounded=1;whiteSpace=wrap;html=1;" vertex="1" parent="1">
          <mxGeometry x="2720" y="920" width="120" height="60" as="geometry" />
        </mxCell>
        <mxCell id="HN-MVnUZaFEQDO-q7xse-74" style="edgeStyle=orthogonalEdgeStyle;rounded=0;orthogonalLoop=1;jettySize=auto;html=1;entryX=0.942;entryY=1;entryDx=0;entryDy=0;entryPerimeter=0;" edge="1" parent="1" source="HN-MVnUZaFEQDO-q7xse-33" target="HN-MVnUZaFEQDO-q7xse-55">
          <mxGeometry relative="1" as="geometry">
            <Array as="points">
              <mxPoint x="2970" y="560" />
              <mxPoint x="2443" y="560" />
            </Array>
          </mxGeometry>
        </mxCell>
        <mxCell id="HN-MVnUZaFEQDO-q7xse-33" value="Approval" style="rounded=1;whiteSpace=wrap;html=1;" vertex="1" parent="1">
          <mxGeometry x="2910" y="760" width="120" height="60" as="geometry" />
        </mxCell>
        <mxCell id="HN-MVnUZaFEQDO-q7xse-73" style="edgeStyle=orthogonalEdgeStyle;rounded=0;orthogonalLoop=1;jettySize=auto;html=1;entryX=0.5;entryY=1;entryDx=0;entryDy=0;" edge="1" parent="1" source="HN-MVnUZaFEQDO-q7xse-34" target="HN-MVnUZaFEQDO-q7xse-33">
          <mxGeometry relative="1" as="geometry" />
        </mxCell>
        <mxCell id="HN-MVnUZaFEQDO-q7xse-34" value="Back End" style="rounded=1;whiteSpace=wrap;html=1;" vertex="1" parent="1">
          <mxGeometry x="2910" y="924" width="120" height="60" as="geometry" />
        </mxCell>
        <mxCell id="HN-MVnUZaFEQDO-q7xse-77" style="edgeStyle=orthogonalEdgeStyle;rounded=0;orthogonalLoop=1;jettySize=auto;html=1;entryX=1;entryY=0.75;entryDx=0;entryDy=0;" edge="1" parent="1" source="HN-MVnUZaFEQDO-q7xse-35" target="HN-MVnUZaFEQDO-q7xse-55">
          <mxGeometry relative="1" as="geometry">
            <Array as="points">
              <mxPoint x="3250" y="530" />
              <mxPoint x="2820" y="530" />
              <mxPoint x="2820" y="345" />
            </Array>
          </mxGeometry>
        </mxCell>
        <mxCell id="HN-MVnUZaFEQDO-q7xse-35" value="Scanning and Parsing" style="rounded=1;whiteSpace=wrap;html=1;" vertex="1" parent="1">
          <mxGeometry x="3190" y="760" width="120" height="60" as="geometry" />
        </mxCell>
        <mxCell id="HN-MVnUZaFEQDO-q7xse-75" style="edgeStyle=orthogonalEdgeStyle;rounded=0;orthogonalLoop=1;jettySize=auto;html=1;entryX=0.25;entryY=1;entryDx=0;entryDy=0;" edge="1" parent="1" source="HN-MVnUZaFEQDO-q7xse-36" target="HN-MVnUZaFEQDO-q7xse-35">
          <mxGeometry relative="1" as="geometry" />
        </mxCell>
        <mxCell id="HN-MVnUZaFEQDO-q7xse-36" value="Front End" style="rounded=1;whiteSpace=wrap;html=1;" vertex="1" parent="1">
          <mxGeometry x="3110" y="924" width="120" height="60" as="geometry" />
        </mxCell>
        <mxCell id="HN-MVnUZaFEQDO-q7xse-76" style="edgeStyle=orthogonalEdgeStyle;rounded=0;orthogonalLoop=1;jettySize=auto;html=1;entryX=0.75;entryY=1;entryDx=0;entryDy=0;" edge="1" parent="1" source="HN-MVnUZaFEQDO-q7xse-37" target="HN-MVnUZaFEQDO-q7xse-35">
          <mxGeometry relative="1" as="geometry" />
        </mxCell>
        <mxCell id="HN-MVnUZaFEQDO-q7xse-37" value="Back End" style="rounded=1;whiteSpace=wrap;html=1;" vertex="1" parent="1">
          <mxGeometry x="3280" y="920" width="120" height="60" as="geometry" />
        </mxCell>
        <mxCell id="HN-MVnUZaFEQDO-q7xse-80" style="edgeStyle=orthogonalEdgeStyle;rounded=0;orthogonalLoop=1;jettySize=auto;html=1;entryX=1;entryY=0.5;entryDx=0;entryDy=0;" edge="1" parent="1" source="HN-MVnUZaFEQDO-q7xse-38" target="HN-MVnUZaFEQDO-q7xse-55">
          <mxGeometry relative="1" as="geometry">
            <Array as="points">
              <mxPoint x="3610" y="480" />
              <mxPoint x="3000" y="480" />
              <mxPoint x="3000" y="330" />
            </Array>
          </mxGeometry>
        </mxCell>
        <mxCell id="HN-MVnUZaFEQDO-q7xse-38" value="Expense Settlement" style="rounded=1;whiteSpace=wrap;html=1;" vertex="1" parent="1">
          <mxGeometry x="3550" y="760" width="120" height="60" as="geometry" />
        </mxCell>
        <mxCell id="HN-MVnUZaFEQDO-q7xse-78" style="edgeStyle=orthogonalEdgeStyle;rounded=0;orthogonalLoop=1;jettySize=auto;html=1;entryX=0.25;entryY=1;entryDx=0;entryDy=0;" edge="1" parent="1" source="HN-MVnUZaFEQDO-q7xse-39" target="HN-MVnUZaFEQDO-q7xse-38">
          <mxGeometry relative="1" as="geometry" />
        </mxCell>
        <mxCell id="HN-MVnUZaFEQDO-q7xse-39" value="Front End" style="rounded=1;whiteSpace=wrap;html=1;" vertex="1" parent="1">
          <mxGeometry x="3470" y="924" width="120" height="60" as="geometry" />
        </mxCell>
        <mxCell id="HN-MVnUZaFEQDO-q7xse-79" style="edgeStyle=orthogonalEdgeStyle;rounded=0;orthogonalLoop=1;jettySize=auto;html=1;entryX=0.75;entryY=1;entryDx=0;entryDy=0;" edge="1" parent="1" source="HN-MVnUZaFEQDO-q7xse-40" target="HN-MVnUZaFEQDO-q7xse-38">
          <mxGeometry relative="1" as="geometry" />
        </mxCell>
        <mxCell id="HN-MVnUZaFEQDO-q7xse-40" value="Back End" style="rounded=1;whiteSpace=wrap;html=1;" vertex="1" parent="1">
          <mxGeometry x="3640" y="924" width="120" height="60" as="geometry" />
        </mxCell>
        <mxCell id="HN-MVnUZaFEQDO-q7xse-83" style="edgeStyle=orthogonalEdgeStyle;rounded=0;orthogonalLoop=1;jettySize=auto;html=1;entryX=1;entryY=0.25;entryDx=0;entryDy=0;" edge="1" parent="1" source="HN-MVnUZaFEQDO-q7xse-41" target="HN-MVnUZaFEQDO-q7xse-55">
          <mxGeometry relative="1" as="geometry">
            <Array as="points">
              <mxPoint x="3970" y="440" />
              <mxPoint x="3180" y="440" />
              <mxPoint x="3180" y="315" />
            </Array>
          </mxGeometry>
        </mxCell>
        <mxCell id="HN-MVnUZaFEQDO-q7xse-41" value="Accounting Settlement" style="rounded=1;whiteSpace=wrap;html=1;" vertex="1" parent="1">
          <mxGeometry x="3910" y="760" width="120" height="60" as="geometry" />
        </mxCell>
        <mxCell id="HN-MVnUZaFEQDO-q7xse-81" style="edgeStyle=orthogonalEdgeStyle;rounded=0;orthogonalLoop=1;jettySize=auto;html=1;entryX=0.25;entryY=1;entryDx=0;entryDy=0;" edge="1" parent="1" source="HN-MVnUZaFEQDO-q7xse-42" target="HN-MVnUZaFEQDO-q7xse-41">
          <mxGeometry relative="1" as="geometry" />
        </mxCell>
        <mxCell id="HN-MVnUZaFEQDO-q7xse-42" value="Front End" style="rounded=1;whiteSpace=wrap;html=1;" vertex="1" parent="1">
          <mxGeometry x="3830" y="924" width="120" height="60" as="geometry" />
        </mxCell>
        <mxCell id="HN-MVnUZaFEQDO-q7xse-82" style="edgeStyle=orthogonalEdgeStyle;rounded=0;orthogonalLoop=1;jettySize=auto;html=1;entryX=0.75;entryY=1;entryDx=0;entryDy=0;" edge="1" parent="1" source="HN-MVnUZaFEQDO-q7xse-43" target="HN-MVnUZaFEQDO-q7xse-41">
          <mxGeometry relative="1" as="geometry" />
        </mxCell>
        <mxCell id="HN-MVnUZaFEQDO-q7xse-43" value="Back End" style="rounded=1;whiteSpace=wrap;html=1;" vertex="1" parent="1">
          <mxGeometry x="4000" y="924" width="120" height="60" as="geometry" />
        </mxCell>
        <mxCell id="HN-MVnUZaFEQDO-q7xse-86" style="edgeStyle=orthogonalEdgeStyle;rounded=0;orthogonalLoop=1;jettySize=auto;html=1;entryX=1;entryY=0.75;entryDx=0;entryDy=0;" edge="1" parent="1" source="HN-MVnUZaFEQDO-q7xse-44" target="HN-MVnUZaFEQDO-q7xse-55">
          <mxGeometry relative="1" as="geometry">
            <Array as="points">
              <mxPoint x="4330" y="345" />
            </Array>
          </mxGeometry>
        </mxCell>
        <mxCell id="HN-MVnUZaFEQDO-q7xse-44" value="Notification" style="rounded=1;whiteSpace=wrap;html=1;" vertex="1" parent="1">
          <mxGeometry x="4270" y="760" width="120" height="60" as="geometry" />
        </mxCell>
        <mxCell id="HN-MVnUZaFEQDO-q7xse-84" style="edgeStyle=orthogonalEdgeStyle;rounded=0;orthogonalLoop=1;jettySize=auto;html=1;entryX=0.25;entryY=1;entryDx=0;entryDy=0;" edge="1" parent="1" source="HN-MVnUZaFEQDO-q7xse-45" target="HN-MVnUZaFEQDO-q7xse-44">
          <mxGeometry relative="1" as="geometry" />
        </mxCell>
        <mxCell id="HN-MVnUZaFEQDO-q7xse-45" value="Front End" style="rounded=1;whiteSpace=wrap;html=1;" vertex="1" parent="1">
          <mxGeometry x="4190" y="930" width="120" height="60" as="geometry" />
        </mxCell>
        <mxCell id="HN-MVnUZaFEQDO-q7xse-85" style="edgeStyle=orthogonalEdgeStyle;rounded=0;orthogonalLoop=1;jettySize=auto;html=1;entryX=0.75;entryY=1;entryDx=0;entryDy=0;" edge="1" parent="1" source="HN-MVnUZaFEQDO-q7xse-46" target="HN-MVnUZaFEQDO-q7xse-44">
          <mxGeometry relative="1" as="geometry" />
        </mxCell>
        <mxCell id="HN-MVnUZaFEQDO-q7xse-46" value="Back End" style="rounded=1;whiteSpace=wrap;html=1;" vertex="1" parent="1">
          <mxGeometry x="4360" y="930" width="120" height="60" as="geometry" />
        </mxCell>
        <mxCell id="HN-MVnUZaFEQDO-q7xse-88" style="edgeStyle=orthogonalEdgeStyle;rounded=0;orthogonalLoop=1;jettySize=auto;html=1;entryX=1;entryY=0.5;entryDx=0;entryDy=0;" edge="1" parent="1" source="HN-MVnUZaFEQDO-q7xse-47" target="HN-MVnUZaFEQDO-q7xse-55">
          <mxGeometry relative="1" as="geometry">
            <Array as="points">
              <mxPoint x="4610" y="330" />
            </Array>
          </mxGeometry>
        </mxCell>
        <mxCell id="HN-MVnUZaFEQDO-q7xse-47" value="Multicurrency" style="rounded=1;whiteSpace=wrap;html=1;" vertex="1" parent="1">
          <mxGeometry x="4550" y="760" width="120" height="60" as="geometry" />
        </mxCell>
        <mxCell id="HN-MVnUZaFEQDO-q7xse-87" style="edgeStyle=orthogonalEdgeStyle;rounded=0;orthogonalLoop=1;jettySize=auto;html=1;entryX=0.5;entryY=1;entryDx=0;entryDy=0;" edge="1" parent="1" source="HN-MVnUZaFEQDO-q7xse-48" target="HN-MVnUZaFEQDO-q7xse-47">
          <mxGeometry relative="1" as="geometry" />
        </mxCell>
        <mxCell id="HN-MVnUZaFEQDO-q7xse-48" value="Back End" style="rounded=1;whiteSpace=wrap;html=1;" vertex="1" parent="1">
          <mxGeometry x="4550" y="930" width="120" height="60" as="geometry" />
        </mxCell>
        <mxCell id="HN-MVnUZaFEQDO-q7xse-91" style="edgeStyle=orthogonalEdgeStyle;rounded=0;orthogonalLoop=1;jettySize=auto;html=1;entryX=1;entryY=0.5;entryDx=0;entryDy=0;" edge="1" parent="1" source="HN-MVnUZaFEQDO-q7xse-49" target="HN-MVnUZaFEQDO-q7xse-55">
          <mxGeometry relative="1" as="geometry">
            <Array as="points">
              <mxPoint x="4890" y="330" />
            </Array>
          </mxGeometry>
        </mxCell>
        <mxCell id="HN-MVnUZaFEQDO-q7xse-49" value="Reporting &amp;amp; Analytics" style="rounded=1;whiteSpace=wrap;html=1;" vertex="1" parent="1">
          <mxGeometry x="4830" y="760" width="120" height="60" as="geometry" />
        </mxCell>
        <mxCell id="HN-MVnUZaFEQDO-q7xse-89" style="edgeStyle=orthogonalEdgeStyle;rounded=0;orthogonalLoop=1;jettySize=auto;html=1;entryX=0.25;entryY=1;entryDx=0;entryDy=0;" edge="1" parent="1" source="HN-MVnUZaFEQDO-q7xse-50" target="HN-MVnUZaFEQDO-q7xse-49">
          <mxGeometry relative="1" as="geometry" />
        </mxCell>
        <mxCell id="HN-MVnUZaFEQDO-q7xse-50" value="Front End" style="rounded=1;whiteSpace=wrap;html=1;" vertex="1" parent="1">
          <mxGeometry x="4745" y="930" width="120" height="60" as="geometry" />
        </mxCell>
        <mxCell id="HN-MVnUZaFEQDO-q7xse-90" style="edgeStyle=orthogonalEdgeStyle;rounded=0;orthogonalLoop=1;jettySize=auto;html=1;entryX=0.75;entryY=1;entryDx=0;entryDy=0;" edge="1" parent="1" source="HN-MVnUZaFEQDO-q7xse-51" target="HN-MVnUZaFEQDO-q7xse-49">
          <mxGeometry relative="1" as="geometry" />
        </mxCell>
        <mxCell id="HN-MVnUZaFEQDO-q7xse-51" value="Back End" style="rounded=1;whiteSpace=wrap;html=1;" vertex="1" parent="1">
          <mxGeometry x="4915" y="930" width="120" height="60" as="geometry" />
        </mxCell>
        <mxCell id="HN-MVnUZaFEQDO-q7xse-94" style="edgeStyle=orthogonalEdgeStyle;rounded=0;orthogonalLoop=1;jettySize=auto;html=1;entryX=1;entryY=0.5;entryDx=0;entryDy=0;" edge="1" parent="1" target="HN-MVnUZaFEQDO-q7xse-55">
          <mxGeometry relative="1" as="geometry">
            <mxPoint x="5207" y="316" as="sourcePoint" />
            <mxPoint x="2460" y="-150" as="targetPoint" />
          </mxGeometry>
        </mxCell>
        <mxCell id="HN-MVnUZaFEQDO-q7xse-95" style="edgeStyle=orthogonalEdgeStyle;rounded=0;orthogonalLoop=1;jettySize=auto;html=1;" edge="1" parent="1" source="HN-MVnUZaFEQDO-q7xse-52">
          <mxGeometry relative="1" as="geometry">
            <mxPoint x="5210" y="320" as="targetPoint" />
          </mxGeometry>
        </mxCell>
        <mxCell id="HN-MVnUZaFEQDO-q7xse-52" value="System Configuration Services" style="rounded=1;whiteSpace=wrap;html=1;" vertex="1" parent="1">
          <mxGeometry x="5200" y="760" width="120" height="60" as="geometry" />
        </mxCell>
        <mxCell id="HN-MVnUZaFEQDO-q7xse-92" style="edgeStyle=orthogonalEdgeStyle;rounded=0;orthogonalLoop=1;jettySize=auto;html=1;entryX=0.25;entryY=1;entryDx=0;entryDy=0;" edge="1" parent="1" source="HN-MVnUZaFEQDO-q7xse-53" target="HN-MVnUZaFEQDO-q7xse-52">
          <mxGeometry relative="1" as="geometry" />
        </mxCell>
        <mxCell id="HN-MVnUZaFEQDO-q7xse-53" value="Front End" style="rounded=1;whiteSpace=wrap;html=1;" vertex="1" parent="1">
          <mxGeometry x="5120" y="930" width="120" height="60" as="geometry" />
        </mxCell>
        <mxCell id="HN-MVnUZaFEQDO-q7xse-93" style="edgeStyle=orthogonalEdgeStyle;rounded=0;orthogonalLoop=1;jettySize=auto;html=1;entryX=0.75;entryY=1;entryDx=0;entryDy=0;" edge="1" parent="1" source="HN-MVnUZaFEQDO-q7xse-54" target="HN-MVnUZaFEQDO-q7xse-52">
          <mxGeometry relative="1" as="geometry" />
        </mxCell>
        <mxCell id="HN-MVnUZaFEQDO-q7xse-54" value="Back End" style="rounded=1;whiteSpace=wrap;html=1;" vertex="1" parent="1">
          <mxGeometry x="5290" y="930" width="120" height="60" as="geometry" />
        </mxCell>
        <mxCell id="HN-MVnUZaFEQDO-q7xse-108" style="edgeStyle=orthogonalEdgeStyle;rounded=0;orthogonalLoop=1;jettySize=auto;html=1;exitX=0.25;exitY=0;exitDx=0;exitDy=0;entryX=0.333;entryY=1;entryDx=0;entryDy=0;entryPerimeter=0;" edge="1" parent="1" source="HN-MVnUZaFEQDO-q7xse-55" target="HN-MVnUZaFEQDO-q7xse-4">
          <mxGeometry relative="1" as="geometry" />
        </mxCell>
        <mxCell id="HN-MVnUZaFEQDO-q7xse-109" value="Push to Production" style="edgeLabel;html=1;align=center;verticalAlign=middle;resizable=0;points=[];" vertex="1" connectable="0" parent="HN-MVnUZaFEQDO-q7xse-108">
          <mxGeometry x="-0.1194" y="1" relative="1" as="geometry">
            <mxPoint as="offset" />
          </mxGeometry>
        </mxCell>
        <mxCell id="HN-MVnUZaFEQDO-q7xse-55" value="Web Master QA" style="rounded=0;whiteSpace=wrap;html=1;" vertex="1" parent="1">
          <mxGeometry x="2330" y="300" width="120" height="60" as="geometry" />
        </mxCell>
        <mxCell id="HN-MVnUZaFEQDO-q7xse-96" value="" style="shape=flexArrow;endArrow=classic;startArrow=classic;html=1;rounded=0;width=103;endSize=10.09;" edge="1" parent="1">
          <mxGeometry width="100" height="100" relative="1" as="geometry">
            <mxPoint x="2420" y="280" as="sourcePoint" />
            <mxPoint x="2800" y="30" as="targetPoint" />
            <Array as="points">
              <mxPoint x="2610" y="160" />
            </Array>
          </mxGeometry>
        </mxCell>
        <mxCell id="HN-MVnUZaFEQDO-q7xse-97" value="AZURE DEVOPS CI/CD PIPELINE" style="edgeLabel;html=1;align=center;verticalAlign=middle;resizable=0;points=[];" vertex="1" connectable="0" parent="HN-MVnUZaFEQDO-q7xse-96">
          <mxGeometry x="-0.1136" y="3" relative="1" as="geometry">
            <mxPoint as="offset" />
          </mxGeometry>
        </mxCell>
        <mxCell id="HN-MVnUZaFEQDO-q7xse-99" value="Deploy to" style="edgeLabel;html=1;align=center;verticalAlign=middle;resizable=0;points=[];" vertex="1" connectable="0" parent="HN-MVnUZaFEQDO-q7xse-96">
          <mxGeometry x="-0.2709" y="-9" relative="1" as="geometry">
            <mxPoint as="offset" />
          </mxGeometry>
        </mxCell>
        <mxCell id="HN-MVnUZaFEQDO-q7xse-101" style="edgeStyle=orthogonalEdgeStyle;rounded=0;orthogonalLoop=1;jettySize=auto;html=1;entryX=0.5;entryY=1;entryDx=0;entryDy=0;" edge="1" parent="1" source="HN-MVnUZaFEQDO-q7xse-98" target="HN-MVnUZaFEQDO-q7xse-100">
          <mxGeometry relative="1" as="geometry" />
        </mxCell>
        <mxCell id="HN-MVnUZaFEQDO-q7xse-102" value="Deploys To" style="edgeLabel;html=1;align=center;verticalAlign=middle;resizable=0;points=[];" vertex="1" connectable="0" parent="HN-MVnUZaFEQDO-q7xse-101">
          <mxGeometry x="0.1333" y="1" relative="1" as="geometry">
            <mxPoint as="offset" />
          </mxGeometry>
        </mxCell>
        <mxCell id="HN-MVnUZaFEQDO-q7xse-98" value="AZURE ACR" style="rounded=1;whiteSpace=wrap;html=1;" vertex="1" parent="1">
          <mxGeometry x="2810" y="20" width="500" height="60" as="geometry" />
        </mxCell>
        <mxCell id="HN-MVnUZaFEQDO-q7xse-104" style="edgeStyle=orthogonalEdgeStyle;rounded=0;orthogonalLoop=1;jettySize=auto;html=1;entryX=0.5;entryY=1;entryDx=0;entryDy=0;" edge="1" parent="1" source="HN-MVnUZaFEQDO-q7xse-100" target="HN-MVnUZaFEQDO-q7xse-103">
          <mxGeometry relative="1" as="geometry" />
        </mxCell>
        <mxCell id="HN-MVnUZaFEQDO-q7xse-100" value="AZURE AKS Container for QA WEB&amp;nbsp;" style="rounded=1;whiteSpace=wrap;html=1;" vertex="1" parent="1">
          <mxGeometry x="2810" y="-100" width="500" height="60" as="geometry" />
        </mxCell>
        <mxCell id="HN-MVnUZaFEQDO-q7xse-105" style="edgeStyle=orthogonalEdgeStyle;rounded=0;orthogonalLoop=1;jettySize=auto;html=1;entryX=0.5;entryY=0;entryDx=0;entryDy=0;" edge="1" parent="1" source="HN-MVnUZaFEQDO-q7xse-103" target="HN-MVnUZaFEQDO-q7xse-55">
          <mxGeometry relative="1" as="geometry" />
        </mxCell>
        <mxCell id="HN-MVnUZaFEQDO-q7xse-106" value="On Testing success" style="edgeLabel;html=1;align=center;verticalAlign=middle;resizable=0;points=[];" vertex="1" connectable="0" parent="HN-MVnUZaFEQDO-q7xse-105">
          <mxGeometry x="-0.4747" y="-3" relative="1" as="geometry">
            <mxPoint as="offset" />
          </mxGeometry>
        </mxCell>
        <mxCell id="HN-MVnUZaFEQDO-q7xse-103" value="TESTING SUCCESSFUL" style="rounded=1;whiteSpace=wrap;html=1;" vertex="1" parent="1">
          <mxGeometry x="2810" y="-220" width="500" height="60" as="geometry" />
        </mxCell>
        <mxCell id="HN-MVnUZaFEQDO-q7xse-110" value="" style="shape=flexArrow;endArrow=classic;startArrow=classic;html=1;rounded=0;width=103;endSize=10.09;" edge="1" parent="1">
          <mxGeometry width="100" height="100" relative="1" as="geometry">
            <mxPoint x="2450" y="-360" as="sourcePoint" />
            <mxPoint x="2830" y="-610" as="targetPoint" />
            <Array as="points">
              <mxPoint x="2640" y="-480" />
            </Array>
          </mxGeometry>
        </mxCell>
        <mxCell id="HN-MVnUZaFEQDO-q7xse-111" value="AZURE DEVOPS CI/CD PIPELINE" style="edgeLabel;html=1;align=center;verticalAlign=middle;resizable=0;points=[];" vertex="1" connectable="0" parent="HN-MVnUZaFEQDO-q7xse-110">
          <mxGeometry x="-0.1136" y="3" relative="1" as="geometry">
            <mxPoint as="offset" />
          </mxGeometry>
        </mxCell>
        <mxCell id="HN-MVnUZaFEQDO-q7xse-112" value="Deploy to" style="edgeLabel;html=1;align=center;verticalAlign=middle;resizable=0;points=[];" vertex="1" connectable="0" parent="HN-MVnUZaFEQDO-q7xse-110">
          <mxGeometry x="-0.2709" y="-9" relative="1" as="geometry">
            <mxPoint as="offset" />
          </mxGeometry>
        </mxCell>
        <mxCell id="HN-MVnUZaFEQDO-q7xse-113" style="edgeStyle=orthogonalEdgeStyle;rounded=0;orthogonalLoop=1;jettySize=auto;html=1;entryX=0.5;entryY=1;entryDx=0;entryDy=0;" edge="1" parent="1" source="HN-MVnUZaFEQDO-q7xse-115" target="HN-MVnUZaFEQDO-q7xse-116">
          <mxGeometry relative="1" as="geometry" />
        </mxCell>
        <mxCell id="HN-MVnUZaFEQDO-q7xse-114" value="Deploys To" style="edgeLabel;html=1;align=center;verticalAlign=middle;resizable=0;points=[];" vertex="1" connectable="0" parent="HN-MVnUZaFEQDO-q7xse-113">
          <mxGeometry x="0.1333" y="1" relative="1" as="geometry">
            <mxPoint as="offset" />
          </mxGeometry>
        </mxCell>
        <mxCell id="HN-MVnUZaFEQDO-q7xse-115" value="AZURE ACR" style="rounded=1;whiteSpace=wrap;html=1;" vertex="1" parent="1">
          <mxGeometry x="2840" y="-610" width="500" height="60" as="geometry" />
        </mxCell>
        <mxCell id="HN-MVnUZaFEQDO-q7xse-116" value="AZURE AKS Container for Production WEB&amp;nbsp;" style="rounded=1;whiteSpace=wrap;html=1;" vertex="1" parent="1">
          <mxGeometry x="2840" y="-730" width="500" height="60" as="geometry" />
        </mxCell>
      </root>
    </mxGraphModel>
  </diagram>
</mxfile>
